Coordinates
version=1
nRows=39
nColumns=38
inDegrees=no

Units are S.I. units (second, meters, Newtons, ...)
If the header above contains a line with 'inDegrees', this indicates whether rotational values are in degrees (yes) or radians (no).

endheader
time	pelvis_tilt	pelvis_list	pelvis_rotation	pelvis_tx	pelvis_ty	pelvis_tz	hip_flexion_r	hip_adduction_r	hip_rotation_r	knee_angle_r	ankle_angle_r	subtalar_angle_r	mtp_angle_r	hip_flexion_l	hip_adduction_l	hip_rotation_l	knee_angle_l	ankle_angle_l	subtalar_angle_l	mtp_angle_l	lumbar_extension	lumbar_bending	lumbar_rotation	arm_flex_r	arm_add_r	arm_rot_r	elbow_flex_r	pro_sup_r	wrist_flex_r	wrist_dev_r	arm_flex_l	arm_add_l	arm_rot_l	elbow_flex_l	pro_sup_l	wrist_flex_l	wrist_dev_l
0	-1.66817	1.38485	0.862268	0.843744	1.1976	1.0207	0.0518961	0.171777	-0.107505	0	-0.267339	0	0	0.190085	-0.404811	-0.355653	0.304458	-0.344686	0	0	0.170586	0.239721	-0.171414	0.765428	-0.382064	0.364926	0.672204	1.05983	0	0	-0.194436	-0.279153	0.354517	0.531053	1.32617	0	0
0.01	-1.66573	1.38499	0.859738	0.8437	1.19753	1.02072	0.0511311	0.172338	-0.108107	0	-0.267421	0	0	0.188807	-0.40452	-0.353826	0.302473	-0.344892	0	0	0.164971	0.23758	-0.160508	0.758056	-0.416995	0.409741	0.704975	0.993395	0	0	-0.185405	-0.30062	0.422251	0.546921	1.27655	0	0
0.02	-1.6669	1.38476	0.86069	0.843702	1.19745	1.0207	0.0510982	0.172438	-0.108229	0	-0.267523	0	0	0.188942	-0.404565	-0.354083	0.302324	-0.344935	0	0	0.165552	0.237651	-0.159983	0.757502	-0.417947	0.410158	0.705107	0.990912	0	0	-0.184919	-0.301565	0.425707	0.547457	1.27168	0	0
0.03	-1.66877	1.38457	0.862233	0.843701	1.19736	1.02067	0.0512602	0.172386	-0.108076	0	-0.267608	0	0	0.189136	-0.4045	-0.354389	0.302241	-0.344997	0	0	0.166033	0.237621	-0.159529	0.757167	-0.418551	0.410229	0.705181	0.989205	0	0	-0.184163	-0.301918	0.428577	0.54713	1.26842	0	0
0.04	-1.6704	1.38435	0.863435	0.843687	1.19728	1.02065	0.0514528	0.172391	-0.107877	0	-0.267694	0	0	0.189205	-0.404513	-0.354769	0.302158	-0.345003	0	0	0.166478	0.237653	-0.158961	0.756932	-0.419152	0.410469	0.705058	0.988108	0	0	-0.183007	-0.301956	0.431854	0.546121	1.26751	0	0
0.05	-1.67229	1.38408	0.864786	0.843659	1.19718	1.02061	0.0517841	0.172455	-0.107505	0	-0.26778	0	0	0.189272	-0.404571	-0.355259	0.302046	-0.345044	0	0	0.16701	0.237717	-0.158336	0.756619	-0.41968	0.410661	0.704983	0.987389	0	0	-0.182345	-0.302307	0.434285	0.545881	1.26714	0	0
0.06	-1.67401	1.38397	0.866058	0.843632	1.19708	1.02058	0.0518631	0.172373	-0.107392	0	-0.267882	0	0	0.189203	-0.404489	-0.355498	0.301893	-0.345037	0	0	0.167255	0.237661	-0.157833	0.756339	-0.420105	0.410704	0.705092	0.986887	0	0	-0.181879	-0.302618	0.436035	0.545917	1.26685	0	0
0.07	-1.67625	1.38388	0.86788	0.843616	1.19698	1.02055	0.0519997	0.17221	-0.107211	0	-0.268015	0	0	0.189207	-0.404295	-0.355599	0.301746	-0.345084	0	0	0.167494	0.237491	-0.157484	0.756107	-0.420335	0.41048	0.705197	0.986457	0	0	-0.181984	-0.302959	0.436089	0.546504	1.26537	0	0
0.08	-1.67816	1.38378	0.869417	0.843616	1.19689	1.02052	0.0520645	0.172093	-0.107	0	-0.2682	0	0	0.1892	-0.404142	-0.355792	0.301641	-0.345086	0	0	0.167645	0.237385	-0.157235	0.756029	-0.420489	0.410297	0.705183	0.986051	0	0	-0.182006	-0.30307	0.436073	0.546853	1.26415	0	0
0.09	-1.67973	1.38362	0.870593	0.843616	1.19681	1.0205	0.0521205	0.172101	-0.106889	0	-0.268407	0	0	0.189183	-0.404068	-0.355943	0.301487	-0.345099	0	0	0.167837	0.237396	-0.157026	0.756032	-0.420652	0.410833	0.705118	0.986421	0	0	-0.181755	-0.302952	0.436543	0.546759	1.26387	0	0
0.1	-1.6811	1.38343	0.871521	0.843596	1.19672	1.02049	0.052195	0.172162	-0.106867	0	-0.268691	0	0	0.18916	-0.404064	-0.355979	0.301394	-0.345058	0	0	0.168081	0.237432	-0.156733	0.756006	-0.420999	0.412914	0.704862	0.988463	0	0	-0.181406	-0.302816	0.437091	0.54656	1.26399	0	0
0.11	-1.68271	1.38323	0.872635	0.843569	1.19664	1.02047	0.0523715	0.172087	-0.106906	0	-0.269115	0	0	0.189196	-0.40406	-0.356055	0.301335	-0.345009	0	0	0.168175	0.237556	-0.156592	0.756208	-0.420865	0.412938	0.704751	0.988984	0	0	-0.181513	-0.302854	0.436657	0.547092	1.26338	0	0
0.12	-1.68439	1.38304	0.873822	0.843551	1.19657	1.02045	0.0525372	0.171909	-0.106872	0	-0.26948	0	0	0.189249	-0.404021	-0.356246	0.301307	-0.34494	0	0	0.168216	0.237679	-0.156414	0.756409	-0.4206	0.411199	0.704848	0.987381	0	0	-0.181556	-0.302788	0.436135	0.547494	1.26303	0	0
0.13	-1.68616	1.38286	0.875078	0.843532	1.19648	1.02043	0.0525881	0.171941	-0.106799	0	-0.269643	0	0	0.189276	-0.40398	-0.356589	0.301242	-0.344871	0	0	0.168375	0.237675	-0.156085	0.756287	-0.420604	0.410707	0.704922	0.986357	0	0	-0.181454	-0.302651	0.435896	0.54756	1.26336	0	0
0.14	-1.68807	1.38268	0.876408	0.843513	1.1964	1.02041	0.0527546	0.171907	-0.106707	0	-0.269714	0	0	0.189272	-0.403909	-0.356922	0.301172	-0.344781	0	0	0.168608	0.237686	-0.155692	0.756301	-0.420699	0.411273	0.704764	0.986233	0	0	-0.181091	-0.302363	0.436285	0.54718	1.26449	0	0
0.15	-1.69125	1.38255	0.878869	0.843487	1.19632	1.02036	0.0532559	0.17147	-0.106364	0	-0.269769	0	0	0.189365	-0.403639	-0.357363	0.301198	-0.344689	0	0	0.16883	0.237566	-0.155421	0.756553	-0.420519	0.411894	0.704673	0.986361	0	0	-0.18108	-0.302155	0.436266	0.547209	1.26537	0	0
0.16	-1.69371	1.38242	0.880743	0.843464	1.19624	1.02031	0.0536019	0.171161	-0.105965	0	-0.269812	0	0	0.189445	-0.403451	-0.357644	0.301233	-0.344664	0	0	0.16892	0.237528	-0.155263	0.756902	-0.420305	0.412269	0.704588	0.986507	0	0	-0.181187	-0.302064	0.436033	0.54749	1.26573	0	0
0.17	-1.69574	1.38222	0.882215	0.843427	1.19616	1.02027	0.0538587	0.171051	-0.105543	0	-0.269933	0	0	0.189564	-0.403404	-0.358014	0.301286	-0.344701	0	0	0.169012	0.237527	-0.155111	0.7572	-0.420002	0.412402	0.704458	0.986526	0	0	-0.181255	-0.302018	0.435643	0.547741	1.2658	0	0
0.18	-1.69711	1.38206	0.883063	0.843375	1.19609	1.02025	0.0539645	0.171103	-0.10527	0	-0.270165	0	0	0.189631	-0.403446	-0.358323	0.301368	-0.344693	0	0	0.168963	0.237556	-0.154926	0.757437	-0.419738	0.412629	0.70437	0.986368	0	0	-0.181124	-0.301983	0.435516	0.547865	1.26605	0	0
0.19	-1.69805	1.38201	0.883431	0.843366	1.19604	1.02025	0.0538625	0.171076	-0.105124	0	-0.27041	0	0	0.189451	-0.403365	-0.3585	0.301338	-0.344631	0	0	0.168708	0.23768	-0.154706	0.75782	-0.41961	0.413447	0.704244	0.986574	0	0	-0.180926	-0.30176	0.435427	0.547847	1.26642	0	0
0.2	-1.69962	1.38196	0.88442	0.843351	1.19601	1.02024	0.0539744	0.170852	-0.105112	0	-0.27052	0	0	0.189373	-0.403181	-0.358674	0.301377	-0.344449	0	0	0.168529	0.237698	-0.154543	0.758396	-0.41953	0.415076	0.703947	0.987447	0	0	-0.180875	-0.30157	0.435064	0.54798	1.26698	0	0
0.21	-1.70111	1.3818	0.885323	0.84332	1.19597	1.02022	0.0541988	0.17076	-0.105161	0	-0.270603	0	0	0.189419	-0.403117	-0.358884	0.301425	-0.344268	0	0	0.168472	0.237784	-0.154556	0.758886	-0.419165	0.415603	0.703866	0.987492	0	0	-0.180905	-0.301366	0.434629	0.548037	1.2677	0	0
0.22	-1.7018	1.38163	0.885488	0.843279	1.19594	1.02022	0.054278	0.170881	-0.105241	0	-0.270809	0	0	0.18943	-0.403198	-0.359005	0.301459	-0.344136	0	0	0.168351	0.237998	-0.154455	0.759225	-0.418981	0.416302	0.703874	0.987662	0	0	-0.180792	-0.30116	0.434326	0.548043	1.26851	0	0
0.23	-1.70182	1.38151	0.885097	0.843242	1.19591	1.02023	0.0541899	0.171111	-0.105124	0	-0.270999	0	0	0.189357	-0.403343	-0.359053	0.30151	-0.344106	0	0	0.168044	0.238338	-0.154482	0.759561	-0.418632	0.415949	0.704223	0.987105	0	0	-0.180626	-0.300915	0.434106	0.54799	1.2691	0	0
0.24	-1.70224	1.38146	0.885127	0.84322	1.19589	1.02023	0.0542082	0.171138	-0.104771	0	-0.271088	0	0	0.189263	-0.403361	-0.359212	0.301565	-0.344049	0	0	0.167747	0.238493	-0.154418	0.759821	-0.418378	0.415879	0.704425	0.986445	0	0	-0.180474	-0.300691	0.433794	0.547988	1.26982	0	0
0.25	-1.70299	1.38152	0.885526	0.843204	1.19589	1.02022	0.0543301	0.170965	-0.104526	0	-0.271111	0	0	0.189166	-0.403226	-0.359293	0.301651	-0.344006	0	0	0.167373	0.238457	-0.15437	0.760176	-0.418109	0.416341	0.704306	0.986069	0	0	-0.180387	-0.300553	0.433379	0.548142	1.27048	0	0
0.26	-1.70356	1.38159	0.885626	0.843182	1.19586	1.02022	0.0543739	0.17085	-0.104229	0	-0.271172	0	0	0.188942	-0.40314	-0.359552	0.301713	-0.343894	0	0	0.166965	0.238486	-0.154289	0.76061	-0.417794	0.41695	0.704168	0.985804	0	0	-0.180313	-0.300419	0.433049	0.548203	1.27116	0	0
0.27	-1.70447	1.38169	0.886149	0.843141	1.19585	1.02019	0.0544742	0.17065	-0.104069	0	-0.271226	0	0	0.188844	-0.403009	-0.35971	0.301862	-0.343797	0	0	0.166507	0.238469	-0.15449	0.761195	-0.417293	0.417503	0.704307	0.985859	0	0	-0.180369	-0.300383	0.432598	0.54841	1.27171	0	0
0.28	-1.70483	1.38172	0.88625	0.843113	1.19584	1.02018	0.0544555	0.170604	-0.103954	0	-0.271273	0	0	0.188818	-0.402957	-0.359676	0.302014	-0.34369	0	0	0.166079	0.238527	-0.154803	0.761649	-0.416912	0.418636	0.704445	0.986589	0	0	-0.180439	-0.300303	0.432	0.548607	1.27213	0	0
0.29	-1.70442	1.38165	0.885574	0.84311	1.19585	1.0202	0.0543122	0.170791	-0.103671	0	-0.271314	0	0	0.188744	-0.403087	-0.359771	0.302064	-0.343573	0	0	0.165622	0.238809	-0.155069	0.762186	-0.416467	0.419074	0.704186	0.986373	0	0	-0.180396	-0.300086	0.431513	0.548578	1.27262	0	0
0.3	-1.70434	1.3815	0.885191	0.843103	1.19585	1.02022	0.0543517	0.170955	-0.103353	0	-0.271374	0	0	0.188736	-0.403225	-0.359904	0.302059	-0.343473	0	0	0.165371	0.239049	-0.155284	0.762566	-0.416075	0.419453	0.704052	0.985838	0	0	-0.180363	-0.299892	0.431047	0.548495	1.27317	0	0
0.31	-1.7045	1.38137	0.885157	0.843088	1.19585	1.02023	0.0544896	0.171008	-0.103335	0	-0.271446	0	0	0.188813	-0.403291	-0.359959	0.302094	-0.343415	0	0	0.1651	0.239222	-0.155677	0.76293	-0.415709	0.420215	0.70418	0.985887	0	0	-0.180434	-0.299758	0.430398	0.548553	1.27376	0	0
0.32	-1.70514	1.38135	0.885661	0.843077	1.19586	1.02022	0.0546278	0.170883	-0.103496	0	-0.271471	0	0	0.188874	-0.403206	-0.36004	0.302139	-0.343351	0	0	0.164825	0.239229	-0.156045	0.763211	-0.415418	0.421151	0.704308	0.986588	0	0	-0.180576	-0.299753	0.429737	0.548845	1.27449	0	0
0.33	-1.7054	1.38136	0.88581	0.843081	1.19586	1.02022	0.0546183	0.170827	-0.103632	0	-0.271493	0	0	0.188834	-0.403143	-0.360186	0.302152	-0.34336	0	0	0.164499	0.239291	-0.156224	0.763472	-0.41516	0.421777	0.703859	0.986747	0	0	-0.180696	-0.299756	0.428955	0.549224	1.27514	0	0
0.34	-1.70602	1.38133	0.886384	0.84308	1.19586	1.02021	0.0547395	0.170725	-0.103499	0	-0.271465	0	0	0.188937	-0.403058	-0.360251	0.302174	-0.343391	0	0	0.16431	0.239257	-0.156296	0.763646	-0.415069	0.422959	0.703248	0.986944	0	0	-0.180812	-0.299799	0.428084	0.549635	1.27579	0	0
0.35	-1.70599	1.38122	0.88636	0.843081	1.19587	1.02021	0.0547987	0.170873	-0.103282	0	-0.271496	0	0	0.189063	-0.403155	-0.360324	0.302189	-0.343444	0	0	0.164142	0.239376	-0.156445	0.763752	-0.414953	0.42308	0.703011	0.986414	0	0	-0.180787	-0.299773	0.42752	0.549784	1.27627	0	0
0.36	-1.70583	1.38114	0.886203	0.843097	1.19588	1.02021	0.0548022	0.171001	-0.103008	0	-0.271554	0	0	0.189102	-0.403233	-0.360403	0.302168	-0.343491	0	0	0.163978	0.239521	-0.156538	0.763823	-0.414915	0.423037	0.70288	0.985741	0	0	-0.180741	-0.299727	0.426895	0.549921	1.27674	0	0
0.37	-1.70584	1.38114	0.88623	0.843114	1.19588	1.02021	0.0547595	0.170989	-0.103017	0	-0.27158	0	0	0.18905	-0.40322	-0.360422	0.302083	-0.343544	0	0	0.163842	0.239585	-0.156573	0.763798	-0.414887	0.422959	0.702742	0.985097	0	0	-0.180713	-0.299716	0.426216	0.550059	1.27722	0	0
0.38	-1.70596	1.38116	0.886451	0.84312	1.19588	1.02021	0.0547564	0.170949	-0.103079	0	-0.27155	0	0	0.189037	-0.403174	-0.36027	0.302007	-0.343556	0	0	0.163727	0.239518	-0.156609	0.763544	-0.414911	0.423418	0.702447	0.984706	0	0	-0.180706	-0.299804	0.425497	0.550253	1.27765	0	0
